<?xml version="1.0" encoding="UTF-8"?>
<svg xmlns="http://www.w3.org/2000/svg" viewBox="0 0 512 512">
  <defs>
    <linearGradient id="bg" x1="0%" y1="0%" x2="100%" y2="100%">
      <stop offset="0%" stop-color="#e8d5f5"/>
      <stop offset="100%" stop-color="#c9a0dc"/>
    </linearGradient>
  </defs>
  <rect width="512" height="512" rx="108" fill="url(#bg)"/>
  <path fill="#ffffff" d="M178.96 350.36Q181.20 350.36 182.88 350.36Q184.56 350.36 185.12 350.36Q185.68 350.36 185.68 350.36Q185.68 350.36 184.56 352.60L182.32 355.96L186.80 363.80Q190.16 369.40 191.28 369.96Q192.40 370.52 195.76 369.40Q196.88 366.04 196.88 367.16Q199.12 369.40 199.12 374.44Q199.12 379.48 196.88 381.72Q196.88 386.20 193.52 387.32Q190.16 388.44 189.04 387.32Q186.80 387.32 182.32 383.40Q177.84 379.48 176.72 376.12Q175.60 372.76 175.60 364.92Q175.60 352.60 178.96 350.36M283.12 349.24Q284.24 348.12 285.36 348.12Q286.48 348.12 287.04 348.12Q287.60 348.12 287.60 348.12Q287.60 349.24 287.04 349.24Q286.48 349.24 280.88 352.60Q270.80 358.20 265.20 369.40Q262.96 372.76 259.60 375Q251.76 378.36 248.40 375Q247.28 371.64 243.92 371.08Q240.56 370.52 235.52 365.48Q230.48 360.44 227.12 357.08Q222.64 354.84 221.52 353.72Q220.40 352.60 220.40 352.04Q220.40 351.48 223.20 351.48Q226 351.48 230.48 351.48Q242.80 351.48 251.76 355.96Q256.24 357.08 259.04 357.08Q261.84 357.08 270.80 352.60Q278.64 350.36 283.12 349.24M302.16 342.52Q306.64 342.52 313.92 342.52Q321.20 342.52 323.44 344.76Q329.04 345.88 333.52 354.84Q336.88 360.44 336.32 363.80Q335.76 367.16 331.28 372.20Q326.80 377.24 322.32 377.24Q320.08 377.24 314.48 378.36Q312.24 379.48 310.56 379.48Q308.88 379.48 308.88 378.36Q307.76 378.36 307.76 376.68Q307.76 375 308.88 371.64Q320.08 357.08 316.72 351.48Q316.72 349.24 312.80 347.56Q308.88 345.88 302.16 345.88Q293.20 344.76 302.16 342.52M247.28 276.44Q256.24 275.32 264.08 276.44Q266.32 277.56 269.12 279.80Q271.92 282.04 273.04 285.40Q277.52 291 269.68 299.96Q264.08 306.68 256.80 313.40Q249.52 320.12 245.04 322.36Q241.68 323.48 234.96 327.96Q224.88 335.80 220.40 338.04Q215.92 340.28 211.44 340.28Q206.96 340.28 206.96 339.16Q206.96 338.04 210.32 335.80Q218.16 331.32 229.92 319Q241.68 306.68 248.40 299.96Q251.76 292.12 249.52 292.12Q249.52 292.12 248.40 292.12Q241.68 294.36 229.36 299.96Q220.40 302.20 212.56 299.96Q210.32 299.96 206.96 296.60Q204.72 294.36 203.04 291Q201.36 287.64 201.36 286.52Q201.36 286.52 204.72 286.52Q208.08 286.52 224.88 279.80Q237.20 277.56 247.28 276.44M229.36 239.48Q239.44 239.48 243.36 240.04Q247.28 240.60 250.64 243.96Q254 247.32 254 249Q254 250.68 250.64 254.04Q248.40 257.40 242.80 257.40Q239.44 257.40 236.08 260.76Q234.96 261.88 230.48 263.56Q226 265.24 224.88 265.24Q222.64 265.24 226 263Q229.36 260.76 230.48 257.40Q232.72 256.28 231.60 255.16Q230.48 254.04 227.12 250.68Q224.88 248.44 219.84 244.52Q214.80 240.60 215.36 240.04Q215.92 239.48 229.36 239.48M220.40 125.24Q220.40 123 224.88 125.24Q226 126.36 229.36 126.36Q234.96 127.48 238.88 136.44Q242.80 145.40 241.68 155.48Q239.44 176.76 229.36 193.56Q226 199.16 226.56 199.72Q227.12 200.28 237.20 198.04Q250.64 193.56 256.24 192.44Q261.84 191.32 266.32 191.32Q273.04 191.32 276.40 192.44Q279.76 193.56 283.12 196.92Q285.36 199.16 285.36 199.72Q285.36 200.28 284.24 203.64Q283.12 207 277.52 210.36Q273.04 210.36 269.68 213.72Q259.60 220.44 256.24 218.20Q256.24 218.20 259.60 213.72Q265.20 207 262.96 207Q261.84 207 250.64 211.48Q226 218.20 218.16 219.32Q211.44 219.32 209.20 218.76Q206.96 218.20 205.84 214.84Q203.60 207 203.60 202.52Q203.60 199.16 205.84 191.32Q218.16 167.80 222.64 148.76Q226 137.56 221.52 129.72Q220.40 126.36 220.40 125.24"/>
</svg>
